<svg class="main-svg" xmlns="http://www.w3.org/2000/svg" xmlns:xlink="http://www.w3.org/1999/xlink" width="700" height="500" style="" viewBox="0 0 700 500"><rect x="0" y="0" width="700" height="500" style="fill: rgb(255, 255, 255); fill-opacity: 1;"/><defs id="defs-1a8d94"><g class="clips"><clipPath id="clip1a8d94xyplot" class="plotclip"><rect width="520.6" height="475"/></clipPath><clipPath id="clip1a8d94xy2plot" class="plotclip"><rect width="520.6" height="475"/></clipPath><clipPath class="axesclip" id="clip1a8d94x"><rect x="84.4" y="0" width="520.6" height="500"/></clipPath><clipPath class="axesclip" id="clip1a8d94y"><rect x="0" y="0" width="700" height="475"/></clipPath><clipPath class="axesclip" id="clip1a8d94xy"><rect x="84.4" y="0" width="520.6" height="475"/></clipPath><clipPath class="axesclip" id="clip1a8d94y2"><rect x="0" y="0" width="700" height="475"/></clipPath><clipPath class="axesclip" id="clip1a8d94xy2"><rect x="84.4" y="0" width="520.6" height="475"/></clipPath></g><g class="gradients"/></defs><g class="bglayer"><rect class="bg" x="84.4" y="0" width="520.6" height="475" style="fill: rgb(255, 255, 255); fill-opacity: 1; stroke-width: 0;"/></g><g class="layer-below"><g class="imagelayer"/><g class="shapelayer"/></g><g class="cartesianlayer"><g class="subplot xy"><g class="layer-subplot"><g class="shapelayer"/><g class="imagelayer"/></g><g class="gridlayer"><g class="x"><path class="xgrid crisp" transform="translate(165.41000000000003,0)" d="M0,0v475" style="stroke: rgb(0, 0, 0); stroke-opacity: 1; stroke-width: 1px;"/><path class="xgrid crisp" transform="translate(267.86,0)" d="M0,0v475" style="stroke: rgb(0, 0, 0); stroke-opacity: 1; stroke-width: 1px;"/><path class="xgrid crisp" transform="translate(370.31000000000006,0)" d="M0,0v475" style="stroke: rgb(0, 0, 0); stroke-opacity: 1; stroke-width: 1px;"/><path class="xgrid crisp" transform="translate(472.77,0)" d="M0,0v475" style="stroke: rgb(0, 0, 0); stroke-opacity: 1; stroke-width: 1px;"/><path class="xgrid crisp" transform="translate(575.22,0)" d="M0,0v475" style="stroke: rgb(0, 0, 0); stroke-opacity: 1; stroke-width: 1px;"/></g><g class="y"><path class="ygrid crisp" transform="translate(0,447.5)" d="M84.4,0h520.6" style="stroke: rgb(0, 0, 0); stroke-opacity: 1; stroke-width: 1px;"/><path class="ygrid crisp" transform="translate(0,363.5)" d="M84.4,0h520.6" style="stroke: rgb(0, 0, 0); stroke-opacity: 1; stroke-width: 1px;"/><path class="ygrid crisp" transform="translate(0,279.5)" d="M84.4,0h520.6" style="stroke: rgb(0, 0, 0); stroke-opacity: 1; stroke-width: 1px;"/><path class="ygrid crisp" transform="translate(0,195.5)" d="M84.4,0h520.6" style="stroke: rgb(0, 0, 0); stroke-opacity: 1; stroke-width: 1px;"/><path class="ygrid crisp" transform="translate(0,111.5)" d="M84.4,0h520.6" style="stroke: rgb(0, 0, 0); stroke-opacity: 1; stroke-width: 1px;"/><path class="ygrid crisp" transform="translate(0,27.5)" d="M84.4,0h520.6" style="stroke: rgb(0, 0, 0); stroke-opacity: 1; stroke-width: 1px;"/></g><g class="y2"/></g><g class="zerolinelayer"/><path class="xlines-below"/><path class="ylines-below"/><g class="overlines-below"><path class="xy2-x"/><path class="xy2-y"/></g><g class="xaxislayer-below"/><g class="yaxislayer-below"/><g class="overaxes-below"><g class="xy2-x"/><g class="xy2-y"/></g><g class="plot" transform="translate(84.4,0)" clip-path="url('#clip1a8d94xyplot')"><g class="scatterlayer mlayer"><g class="trace scatter tracedf3587" style="stroke-miterlimit: 2; opacity: 1;"><g class="fills"/><g class="errorbars"/><g class="lines"><path class="js-line" d="M29.78,111.5Q63.93,223.5 81.01,279.5C98.08,335.5 116.5,448.25 132.23,447.5C151.27,446.59 164.42,196.41 183.46,195.5C199.2,194.75 219.62,364.59 234.69,363.5C255.65,361.98 249.45,58.82 285.91,27.5C300.06,15.34 320.06,27.5 337.14,27.5C354.22,27.5 373.29,19.03 388.37,27.5C409.27,39.24 422.52,83.5 439.59,111.5Q456.67,139.5 490.82,195.5" style="vector-effect: non-scaling-stroke; fill: none; stroke: rgb(0, 170, 255); stroke-opacity: 1; stroke-width: 2px; opacity: 1;"/></g><g class="points"><path class="point" transform="translate(29.78,111.5)" d="M3,0A3,3 0 1,1 0,-3A3,3 0 0,1 3,0Z" style="opacity: 1; stroke-width: 0px; fill: rgb(0, 170, 255); fill-opacity: 1;"/><path class="point" transform="translate(81.01,279.5)" d="M3,0A3,3 0 1,1 0,-3A3,3 0 0,1 3,0Z" style="opacity: 1; stroke-width: 0px; fill: rgb(0, 170, 255); fill-opacity: 1;"/><path class="point" transform="translate(132.23,447.5)" d="M3,0A3,3 0 1,1 0,-3A3,3 0 0,1 3,0Z" style="opacity: 1; stroke-width: 0px; fill: rgb(0, 170, 255); fill-opacity: 1;"/><path class="point" transform="translate(183.46,195.5)" d="M3,0A3,3 0 1,1 0,-3A3,3 0 0,1 3,0Z" style="opacity: 1; stroke-width: 0px; fill: rgb(0, 170, 255); fill-opacity: 1;"/><path class="point" transform="translate(234.69,363.5)" d="M3,0A3,3 0 1,1 0,-3A3,3 0 0,1 3,0Z" style="opacity: 1; stroke-width: 0px; fill: rgb(0, 170, 255); fill-opacity: 1;"/><path class="point" transform="translate(285.91,27.5)" d="M3,0A3,3 0 1,1 0,-3A3,3 0 0,1 3,0Z" style="opacity: 1; stroke-width: 0px; fill: rgb(0, 170, 255); fill-opacity: 1;"/><path class="point" transform="translate(337.14,27.5)" d="M3,0A3,3 0 1,1 0,-3A3,3 0 0,1 3,0Z" style="opacity: 1; stroke-width: 0px; fill: rgb(0, 170, 255); fill-opacity: 1;"/><path class="point" transform="translate(388.37,27.5)" d="M3,0A3,3 0 1,1 0,-3A3,3 0 0,1 3,0Z" style="opacity: 1; stroke-width: 0px; fill: rgb(0, 170, 255); fill-opacity: 1;"/><path class="point" transform="translate(439.59,111.5)" d="M3,0A3,3 0 1,1 0,-3A3,3 0 0,1 3,0Z" style="opacity: 1; stroke-width: 0px; fill: rgb(0, 170, 255); fill-opacity: 1;"/><path class="point" transform="translate(490.82,195.5)" d="M3,0A3,3 0 1,1 0,-3A3,3 0 0,1 3,0Z" style="opacity: 1; stroke-width: 0px; fill: rgb(0, 170, 255); fill-opacity: 1;"/></g><g class="text"/></g></g></g><g class="overplot"><g class="xy2" transform="translate(84.4,0)" clip-path="url('#clip1a8d94xy2plot')"><g class="scatterlayer mlayer"><g class="trace scatter tracec9ad41" style="stroke-miterlimit: 2; opacity: 1;"><g class="fills"/><g class="errorbars"/><g class="lines"><path class="js-line" d="M29.78,27.5Q63.93,27.5 81.01,27.5C98.08,27.5 117.15,19.03 132.23,27.5C153.13,39.24 166.38,83.5 183.46,111.5C200.54,139.5 217.61,195.5 234.69,195.5C251.76,195.5 270.67,109.57 285.91,111.5C306.27,114.07 320.06,223.5 337.14,279.5C354.22,335.5 372.64,448.25 388.37,447.5C407.41,446.59 420.55,196.41 439.59,195.5Q455.32,194.75 490.82,363.5" style="vector-effect: non-scaling-stroke; fill: none; stroke: rgb(187, 0, 170); stroke-opacity: 1; stroke-width: 2px; opacity: 1;"/></g><g class="points"><path class="point" transform="translate(29.78,27.5)" d="M3,0A3,3 0 1,1 0,-3A3,3 0 0,1 3,0Z" style="opacity: 1; stroke-width: 0px; fill: rgb(187, 0, 170); fill-opacity: 1;"/><path class="point" transform="translate(81.01,27.5)" d="M3,0A3,3 0 1,1 0,-3A3,3 0 0,1 3,0Z" style="opacity: 1; stroke-width: 0px; fill: rgb(187, 0, 170); fill-opacity: 1;"/><path class="point" transform="translate(132.23,27.5)" d="M3,0A3,3 0 1,1 0,-3A3,3 0 0,1 3,0Z" style="opacity: 1; stroke-width: 0px; fill: rgb(187, 0, 170); fill-opacity: 1;"/><path class="point" transform="translate(183.46,111.5)" d="M3,0A3,3 0 1,1 0,-3A3,3 0 0,1 3,0Z" style="opacity: 1; stroke-width: 0px; fill: rgb(187, 0, 170); fill-opacity: 1;"/><path class="point" transform="translate(234.69,195.5)" d="M3,0A3,3 0 1,1 0,-3A3,3 0 0,1 3,0Z" style="opacity: 1; stroke-width: 0px; fill: rgb(187, 0, 170); fill-opacity: 1;"/><path class="point" transform="translate(285.91,111.5)" d="M3,0A3,3 0 1,1 0,-3A3,3 0 0,1 3,0Z" style="opacity: 1; stroke-width: 0px; fill: rgb(187, 0, 170); fill-opacity: 1;"/><path class="point" transform="translate(337.14,279.5)" d="M3,0A3,3 0 1,1 0,-3A3,3 0 0,1 3,0Z" style="opacity: 1; stroke-width: 0px; fill: rgb(187, 0, 170); fill-opacity: 1;"/><path class="point" transform="translate(388.37,447.5)" d="M3,0A3,3 0 1,1 0,-3A3,3 0 0,1 3,0Z" style="opacity: 1; stroke-width: 0px; fill: rgb(187, 0, 170); fill-opacity: 1;"/><path class="point" transform="translate(439.59,195.5)" d="M3,0A3,3 0 1,1 0,-3A3,3 0 0,1 3,0Z" style="opacity: 1; stroke-width: 0px; fill: rgb(187, 0, 170); fill-opacity: 1;"/><path class="point" transform="translate(490.82,363.5)" d="M3,0A3,3 0 1,1 0,-3A3,3 0 0,1 3,0Z" style="opacity: 1; stroke-width: 0px; fill: rgb(187, 0, 170); fill-opacity: 1;"/></g><g class="text"/></g></g></g></g><path class="xlines-above crisp" d="M0,0" style="fill: none;"/><path class="ylines-above crisp" d="M83.4,0V475" style="fill: none; stroke-width: 2px; stroke: rgb(0, 0, 0); stroke-opacity: 1;"/><g class="overlines-above"><path class="xy2-x crisp" d="M0,0" style="fill: none;"/><path class="xy2-y crisp" d="M57,0v475" style="fill: none; stroke-width: 2px; stroke: rgb(0, 0, 0); stroke-opacity: 1;"/></g><g class="xaxislayer-above"><g class="xtick"><text text-anchor="middle" x="0" y="496" transform="translate(165.41000000000003,0)" style="font-family: sans-serif; font-size: 20px; fill: rgb(0, 0, 0); fill-opacity: 1; white-space: pre;">2</text></g><g class="xtick"><text text-anchor="middle" x="0" y="496" transform="translate(267.86,0)" style="font-family: sans-serif; font-size: 20px; fill: rgb(0, 0, 0); fill-opacity: 1; white-space: pre;">4</text></g><g class="xtick"><text text-anchor="middle" x="0" y="496" transform="translate(370.31000000000006,0)" style="font-family: sans-serif; font-size: 20px; fill: rgb(0, 0, 0); fill-opacity: 1; white-space: pre;">6</text></g><g class="xtick"><text text-anchor="middle" x="0" y="496" transform="translate(472.77,0)" style="font-family: sans-serif; font-size: 20px; fill: rgb(0, 0, 0); fill-opacity: 1; white-space: pre;">8</text></g><g class="xtick"><text text-anchor="middle" x="0" y="496" transform="translate(575.22,0)" style="font-family: sans-serif; font-size: 20px; fill: rgb(0, 0, 0); fill-opacity: 1; white-space: pre;">10</text></g></g><g class="yaxislayer-above"><g class="ytick"><text text-anchor="end" x="78.4" y="7" transform="translate(0,447.5)" style="font-family: sans-serif; font-size: 20px; fill: rgb(0, 0, 0); fill-opacity: 1; white-space: pre;">1</text></g><g class="ytick"><text text-anchor="end" x="78.4" y="7" transform="translate(0,363.5)" style="font-family: sans-serif; font-size: 20px; fill: rgb(0, 0, 0); fill-opacity: 1; white-space: pre;">2</text></g><g class="ytick"><text text-anchor="end" x="78.4" y="7" transform="translate(0,279.5)" style="font-family: sans-serif; font-size: 20px; fill: rgb(0, 0, 0); fill-opacity: 1; white-space: pre;">3</text></g><g class="ytick"><text text-anchor="end" x="78.4" y="7" transform="translate(0,195.5)" style="font-family: sans-serif; font-size: 20px; fill: rgb(0, 0, 0); fill-opacity: 1; white-space: pre;">4</text></g><g class="ytick"><text text-anchor="end" x="78.4" y="7" transform="translate(0,111.5)" style="font-family: sans-serif; font-size: 20px; fill: rgb(0, 0, 0); fill-opacity: 1; white-space: pre;">5</text></g><g class="ytick"><text text-anchor="end" x="78.4" y="7" transform="translate(0,27.5)" style="font-family: sans-serif; font-size: 20px; fill: rgb(0, 0, 0); fill-opacity: 1; white-space: pre;">6</text></g></g><g class="overaxes-above"><g class="xy2-x"/><g class="xy2-y"><g class="y2tick"><text text-anchor="end" x="52" y="7" transform="translate(0,447.5)" style="font-family: sans-serif; font-size: 20px; fill: rgb(187, 0, 170); fill-opacity: 1; white-space: pre;">10</text></g><g class="y2tick"><text text-anchor="end" x="52" y="7" transform="translate(0,363.5)" style="font-family: sans-serif; font-size: 20px; fill: rgb(187, 0, 170); fill-opacity: 1; white-space: pre;">20</text></g><g class="y2tick"><text text-anchor="end" x="52" y="7" transform="translate(0,279.5)" style="font-family: sans-serif; font-size: 20px; fill: rgb(187, 0, 170); fill-opacity: 1; white-space: pre;">30</text></g><g class="y2tick"><text text-anchor="end" x="52" y="7" transform="translate(0,195.5)" style="font-family: sans-serif; font-size: 20px; fill: rgb(187, 0, 170); fill-opacity: 1; white-space: pre;">40</text></g><g class="y2tick"><text text-anchor="end" x="52" y="7" transform="translate(0,111.5)" style="font-family: sans-serif; font-size: 20px; fill: rgb(187, 0, 170); fill-opacity: 1; white-space: pre;">50</text></g><g class="y2tick"><text text-anchor="end" x="52" y="7" transform="translate(0,27.5)" style="font-family: sans-serif; font-size: 20px; fill: rgb(187, 0, 170); fill-opacity: 1; white-space: pre;">60</text></g></g></g></g><g class="subplot xy2"/></g><g class="polarlayer"/><g class="ternarylayer"/><g class="geolayer"/><g class="funnelarealayer"/><g class="pielayer"/><g class="treemaplayer"/><g class="sunburstlayer"/><g class="glimages"/><defs id="topdefs-1a8d94"><g class="clips"/><clipPath id="legend1a8d94"><rect width="84" height="48" x="0" y="0"/></clipPath></defs><g class="layer-above"><g class="imagelayer"/><g class="shapelayer"/></g><g class="infolayer"><g class="legend" pointer-events="all" transform="translate(615.96,0)"><rect class="bg" shape-rendering="crispEdges" width="84" height="48" x="0" y="0" style="stroke: rgb(68, 68, 68); stroke-opacity: 1; fill: rgb(255, 255, 255); fill-opacity: 1; stroke-width: 0px;"/><g class="scrollbox" transform="" clip-path="url('#legend1a8d94')"><g class="groups"><g class="traces" transform="translate(0,14.5)" style="opacity: 1;"><text class="legendtext" text-anchor="start" x="40" y="4.680000000000001" style="font-family: 'Open Sans', verdana, arial, sans-serif; font-size: 12px; fill: rgb(42, 63, 95); fill-opacity: 1; white-space: pre;">yaxis1</text><g class="layers" style="opacity: 1;"><g class="legendfill"/><g class="legendlines"><path class="js-line" d="M5,0h30" style="fill: none; stroke: rgb(0, 170, 255); stroke-opacity: 1; stroke-width: 2px;"/></g><g class="legendsymbols"><g class="legendpoints"><path class="scatterpts" transform="translate(20,0)" d="M3,0A3,3 0 1,1 0,-3A3,3 0 0,1 3,0Z" style="opacity: 1; stroke-width: 0px; fill: rgb(0, 170, 255); fill-opacity: 1;"/></g></g></g><rect class="legendtoggle" x="0" y="-9.5" width="78.734375" height="19" style="fill: rgb(0, 0, 0); fill-opacity: 0;"/></g><g class="traces" transform="translate(0,33.5)" style="opacity: 1;"><text class="legendtext" text-anchor="start" x="40" y="4.680000000000001" style="font-family: 'Open Sans', verdana, arial, sans-serif; font-size: 12px; fill: rgb(42, 63, 95); fill-opacity: 1; white-space: pre;">yaxis2</text><g class="layers" style="opacity: 1;"><g class="legendfill"/><g class="legendlines"><path class="js-line" d="M5,0h30" style="fill: none; stroke: rgb(187, 0, 170); stroke-opacity: 1; stroke-width: 2px;"/></g><g class="legendsymbols"><g class="legendpoints"><path class="scatterpts" transform="translate(20,0)" d="M3,0A3,3 0 1,1 0,-3A3,3 0 0,1 3,0Z" style="opacity: 1; stroke-width: 0px; fill: rgb(187, 0, 170); fill-opacity: 1;"/></g></g></g><rect class="legendtoggle" x="0" y="-9.5" width="78.734375" height="19" style="fill: rgb(0, 0, 0); fill-opacity: 0;"/></g></g></g><rect class="scrollbar" rx="20" ry="3" width="0" height="0" x="0" y="0" style="fill: rgb(128, 139, 164); fill-opacity: 1;"/></g><g class="g-gtitle"/><g class="g-xtitle"/><g class="g-ytitle"><text class="ytitle" transform="rotate(-90,37.265625,237.5)" x="37.265625" y="237.5" text-anchor="middle" style="font-family: sans-serif; font-size: 20px; fill: rgb(0, 0, 0); opacity: 1; font-weight: normal; white-space: pre;">yaxis 1</text></g><g class="g-y2title" transform="translate(18.25,0)"><text class="y2title" transform="rotate(-90,-0.25,237.5)" x="-0.25" y="237.5" text-anchor="middle" style="font-family: sans-serif; font-size: 20px; fill: rgb(187, 0, 170); opacity: 1; font-weight: normal; white-space: pre;">yaxis2 title</text></g></g></svg>